<svg xmlns="http://www.w3.org/2000/svg" width="8.88889in" height="5.55556in" viewBox="0 0 640 400">
  <path id="Path #6" fill="black" stroke="black" stroke-width="1" d="M 241.61,127.58
           C 240.30,132.71 239.16,138.04 238.19,143.55
             237.22,149.05 236.44,154.70 235.84,160.48
             235.26,166.28 234.97,172.07 234.97,177.86
             234.97,182.75 235.18,187.59 235.61,192.38
             236.04,197.16 236.77,201.76 237.81,206.19
             238.85,210.62 240.23,214.77 241.95,218.64
             243.68,222.52 245.85,225.97 248.45,229.00
             251.05,232.02 254.14,234.56 257.72,236.61
             261.30,238.66 265.44,240.01 270.12,240.66
             271.16,240.85 272.21,240.95 273.25,240.95
             274.23,240.95 275.08,240.59 275.80,239.88
             276.52,239.16 276.88,238.34 276.88,237.44
             276.88,236.52 276.56,235.66 275.94,234.84
             275.32,234.03 274.49,233.59 273.45,233.53
             269.29,233.40 265.62,232.52 262.47,230.89
             259.31,229.27 256.59,227.12 254.31,224.45
             252.03,221.78 250.11,218.67 248.55,215.12
             246.98,211.57 245.74,207.78 244.83,203.75
             243.92,199.71 243.27,195.51 242.88,191.16
             242.49,186.79 242.30,182.46 242.30,178.16
             242.30,175.43 242.36,172.71 242.48,170.02
             242.62,167.31 242.79,164.71 242.98,162.23
             243.44,156.84 244.17,151.42 245.17,145.98
             246.18,140.55 247.34,135.34 248.64,130.36
             249.94,125.38 251.27,120.73 252.64,116.39
             254.02,112.06 255.27,108.28 256.41,105.06
             257.55,101.84 258.49,99.31 259.23,97.45
             259.98,95.59 260.36,94.62 260.36,94.56
             260.55,94.11 260.66,93.65 260.66,93.20
             260.66,92.23 260.31,91.36 259.62,90.61
             258.95,89.86 258.05,89.48 256.95,89.48
             255.91,89.48 255.03,89.84 254.31,90.56
             254.18,90.76 253.21,91.89 251.42,93.94
             249.64,95.98 247.19,99.15 244.06,103.45
             240.94,107.75 237.22,113.20 232.92,119.81
             228.63,126.42 223.91,134.34 218.77,143.59
             215.12,150.11 211.55,157.02 208.06,164.34
             204.58,171.67 201.28,178.86 198.16,185.92
             195.03,192.98 192.20,199.66 189.66,205.94
             187.12,212.22 184.98,217.57 183.22,222.00
             182.30,218.17 181.30,213.88 180.23,209.12
             179.16,204.37 178.04,199.38 176.86,194.17
             175.69,188.96 174.49,183.62 173.25,178.16
             172.02,172.69 170.82,167.34 169.64,162.09
             168.47,156.86 167.33,151.79 166.22,146.91
             165.11,142.02 164.14,137.59 163.30,133.62
             164.46,128.68 165.34,124.16 165.92,120.06
             166.52,115.96 166.81,112.34 166.81,109.22
             166.81,106.36 166.58,104.08 166.12,102.39
             165.66,100.70 165.09,99.41 164.41,98.53
             163.73,97.65 162.98,97.07 162.17,96.81
             161.36,96.55 160.62,96.42 159.97,96.42
             159.19,96.42 158.38,96.54 157.53,96.77
             156.69,97.00 155.91,97.55 155.19,98.42
             154.47,99.30 153.88,100.59 153.42,102.28
             152.97,103.97 152.75,106.25 152.75,109.11
             152.75,111.79 152.99,115.15 153.48,119.19
             153.97,123.22 154.77,128.10 155.88,133.83
             154.57,137.80 153.30,141.73 152.06,145.64
             150.82,149.55 149.55,153.20 148.25,156.58
             143.96,167.84 139.68,177.61 135.41,185.88
             131.14,194.15 126.83,201.21 122.47,207.08
             118.11,212.93 113.72,217.68 109.30,221.33
             104.87,224.98 100.36,227.84 95.77,229.92
             91.17,232.01 86.52,233.42 81.80,234.17
             77.08,234.91 72.24,235.28 67.30,235.28
             64.37,235.28 61.26,234.98 57.97,234.36
             54.69,233.75 51.41,232.80 48.16,231.53
             44.91,230.26 41.78,228.65 38.78,226.70
             35.79,224.75 33.16,222.43 30.88,219.77
             28.59,217.09 26.77,214.06 25.41,210.67
             24.04,207.29 23.36,203.55 23.36,199.45
             23.36,195.29 24.25,191.46 26.03,187.98
             27.82,184.50 30.23,181.48 33.27,178.94
             36.30,176.40 39.84,174.43 43.91,173.03
             47.98,171.64 52.29,170.94 56.84,170.94
             61.86,170.94 66.11,171.49 69.59,172.59
             73.07,173.70 75.91,174.94 78.12,176.31
             80.34,177.68 81.94,178.93 82.92,180.06
             83.90,181.20 84.42,181.80 84.48,181.88
             85.27,182.98 86.30,183.53 87.61,183.53
             88.71,183.53 89.61,183.14 90.30,182.36
             90.98,181.58 91.33,180.73 91.33,179.81
             91.33,179.17 91.13,178.48 90.73,177.77
             90.67,177.77 90.38,177.39 89.86,176.64
             89.34,175.89 88.49,175.00 87.31,173.95
             86.14,172.91 84.68,171.78 82.92,170.55
             81.16,169.31 79.04,168.17 76.56,167.12
             74.09,166.09 71.25,165.23 68.03,164.55
             64.81,163.86 61.18,163.52 57.14,163.52
             51.61,163.52 46.35,164.40 41.38,166.16
             36.39,167.91 32.02,170.36 28.23,173.52
             24.46,176.67 21.47,180.45 19.25,184.84
             17.04,189.24 15.94,194.07 15.94,199.34
             15.94,204.37 16.72,208.91 18.28,212.98
             19.84,217.05 21.96,220.70 24.62,223.92
             27.29,227.14 30.35,229.92 33.80,232.27
             37.25,234.61 40.87,236.56 44.64,238.12
             48.42,239.69 52.23,240.84 56.06,241.59
             59.91,242.34 63.52,242.72 66.91,242.72
             73.48,242.72 79.71,242.10 85.61,240.86
             91.50,239.62 97.13,237.55 102.50,234.66
             107.88,231.76 113.02,227.94 117.94,223.19
             122.85,218.43 127.62,212.55 132.23,205.55
             136.86,198.55 141.37,190.31 145.77,180.84
             150.16,171.38 154.54,160.48 158.91,148.17
             160.21,154.10 161.60,160.36 163.09,166.94
             164.59,173.51 166.07,180.01 167.53,186.42
             169.00,192.83 170.40,198.98 171.73,204.88
             173.08,210.76 174.27,215.97 175.31,220.50
             176.35,225.02 177.18,228.64 177.80,231.34
             178.41,234.04 178.72,235.42 178.72,235.48
             178.91,236.33 179.34,237.03 179.98,237.58
             180.64,238.13 181.39,238.41 182.23,238.41
             183.93,238.41 185.10,237.59 185.75,235.97
             185.75,235.91 186.27,234.50 187.31,231.73
             188.35,228.96 189.79,225.28 191.61,220.69
             193.43,216.09 195.58,210.79 198.05,204.77
             200.52,198.75 203.23,192.46 206.16,185.92
             209.09,179.38 212.17,172.78 215.39,166.11
             218.62,159.43 221.89,153.13 225.20,147.20
             229.11,140.11 232.79,133.70 236.23,127.97
             239.69,122.24 242.82,117.32 245.62,113.22
             244.25,117.65 242.91,122.43 241.61,127.58 Z
           M 358.50,210.39
           C 358.50,209.48 358.16,208.61 357.47,207.80
             356.78,206.98 355.88,206.58 354.78,206.58
             354.06,206.58 353.39,206.78 352.78,207.17
             352.16,207.56 351.69,208.11 351.36,208.83
             350.77,210.06 350.06,211.52 349.22,213.22
             348.38,214.91 347.39,216.66 346.28,218.48
             345.18,220.31 343.96,222.12 342.62,223.91
             341.29,225.70 339.89,227.30 338.42,228.70
             336.96,230.10 335.47,231.22 333.94,232.06
             332.41,232.91 330.86,233.33 329.30,233.33
             326.89,233.33 325.00,232.52 323.62,230.89
             322.26,229.27 321.23,227.35 320.55,225.14
             319.87,222.92 319.43,220.70 319.23,218.45
             319.04,216.20 318.91,214.46 318.84,213.22
             318.78,212.30 318.41,211.49 317.72,210.78
             317.04,210.06 316.24,209.70 315.33,209.70
             314.35,209.70 313.50,210.02 312.78,210.64
             312.07,211.26 311.65,212.02 311.52,212.92
             311.07,216.31 310.27,219.24 309.12,221.72
             307.99,224.19 306.72,226.24 305.31,227.88
             303.91,229.50 302.45,230.70 300.92,231.48
             299.39,232.27 298.04,232.66 296.88,232.66
             295.25,232.66 293.88,232.34 292.77,231.69
             291.66,231.03 290.78,230.18 290.12,229.14
             289.48,228.10 289.02,226.95 288.77,225.67
             288.50,224.40 288.38,223.15 288.38,221.91
             288.38,217.94 289.01,214.51 290.28,211.61
             291.55,208.71 293.13,206.31 295.02,204.39
             296.90,202.46 298.98,201.05 301.27,200.14
             303.55,199.23 305.70,198.77 307.72,198.77
             309.08,198.77 310.30,198.91 311.38,199.20
             312.45,199.50 313.38,199.84 314.16,200.23
             314.94,200.62 315.55,201.00 316.02,201.36
             316.47,201.71 316.77,201.95 316.89,202.08
             317.61,202.80 318.49,203.16 319.53,203.16
             320.51,203.16 321.35,202.78 322.06,202.03
             322.78,201.28 323.14,200.42 323.14,199.45
             323.14,198.54 322.78,197.66 322.06,196.81
             322.00,196.75 321.64,196.45 320.98,195.89
             320.34,195.33 319.41,194.73 318.20,194.08
             317.00,193.42 315.55,192.82 313.86,192.27
             312.17,191.71 310.32,191.44 308.30,191.44
             305.30,191.44 302.20,192.09 298.97,193.39
             295.75,194.70 292.80,196.65 290.12,199.25
             287.46,201.86 285.26,205.09 283.53,208.97
             281.81,212.84 280.95,217.32 280.95,222.39
             280.95,224.93 281.33,227.28 282.08,229.44
             282.83,231.59 283.88,233.45 285.25,235.05
             286.61,236.64 288.27,237.88 290.22,238.77
             292.18,239.64 294.36,240.08 296.78,240.08
             299.83,240.08 302.89,238.99 305.95,236.81
             309.02,234.62 311.65,231.68 313.86,227.97
             315.04,231.62 316.91,234.64 319.48,237.05
             322.05,239.45 325.23,240.66 329.00,240.66
             331.66,240.66 334.20,240.02 336.61,238.75
             339.02,237.48 341.27,235.87 343.36,233.92
             345.44,231.96 347.33,229.81 349.02,227.47
             350.71,225.12 352.20,222.88 353.47,220.73
             354.74,218.59 355.78,216.69 356.59,215.03
             357.41,213.37 357.94,212.27 358.20,211.75
             358.40,211.29 358.50,210.84 358.50,210.39 Z
           M 387.30,235.25
           C 387.40,231.04 387.48,227.34 387.55,224.16
             387.62,220.97 387.69,218.42 387.75,216.50
             387.81,214.57 387.84,213.58 387.84,213.52
             387.84,212.54 387.53,211.66 386.91,210.88
             386.29,210.09 385.43,209.70 384.33,209.70
             383.35,209.70 382.50,210.02 381.78,210.64
             381.07,211.26 380.65,212.02 380.52,212.92
             380.07,216.31 379.30,219.24 378.22,221.72
             377.14,224.19 375.89,226.24 374.45,227.88
             373.02,229.50 371.55,230.70 370.02,231.48
             368.49,232.27 367.05,232.66 365.67,232.66
             362.80,232.66 360.69,231.70 359.33,229.78
             357.96,227.86 357.28,225.33 357.28,222.20
             357.28,218.04 357.96,214.48 359.33,211.52
             360.69,208.55 362.38,206.12 364.41,204.23
             366.43,202.35 368.61,200.97 370.95,200.09
             373.30,199.21 375.44,198.77 377.39,198.77
             378.69,198.77 379.82,198.90 380.77,199.16
             381.71,199.42 382.52,199.75 383.20,200.14
             383.89,200.53 384.44,200.90 384.86,201.27
             385.29,201.62 385.63,201.89 385.89,202.08
             386.73,202.80 387.61,203.16 388.53,203.16
             389.51,203.16 390.35,202.78 391.06,202.03
             391.78,201.28 392.14,200.42 392.14,199.45
             392.14,198.48 391.78,197.59 391.06,196.81
             391.00,196.75 390.64,196.43 389.98,195.84
             389.34,195.25 388.41,194.63 387.20,193.98
             386.00,193.33 384.55,192.74 382.86,192.22
             381.17,191.70 379.32,191.44 377.30,191.44
             374.30,191.44 371.20,192.09 367.97,193.39
             364.75,194.70 361.80,196.65 359.12,199.25
             356.46,201.86 354.26,205.09 352.53,208.97
             350.81,212.84 349.95,217.32 349.95,222.39
             349.95,224.93 350.31,227.28 351.03,229.44
             351.75,231.59 352.76,233.45 354.06,235.05
             355.36,236.64 356.94,237.88 358.80,238.77
             360.65,239.64 362.72,240.08 365.00,240.08
             367.66,240.08 370.35,239.36 373.05,237.94
             375.75,236.50 378.08,234.54 380.03,232.06
             379.91,235.84 379.82,239.98 379.78,244.47
             379.75,248.96 379.70,253.48 379.64,258.05
             376.97,260.97 374.45,264.23 372.08,267.81
             369.70,271.39 367.50,275.14 365.48,279.05
             363.46,282.95 361.62,286.97 359.95,291.09
             358.30,295.23 356.88,299.31 355.70,303.34
             354.54,307.38 353.64,311.31 353.03,315.12
             352.41,318.94 352.11,322.47 352.11,325.72
             352.11,331.84 353.28,336.56 355.62,339.88
             357.97,343.20 361.32,344.86 365.67,344.86
             368.73,344.86 371.38,344.09 373.62,342.56
             375.88,341.03 377.80,338.91 379.39,336.22
             380.99,333.52 382.30,330.33 383.30,326.64
             384.30,322.96 385.10,318.96 385.69,314.62
             386.28,310.30 386.69,305.74 386.92,300.95
             387.15,296.17 387.27,291.34 387.27,286.47
             387.27,281.58 387.23,277.09 387.16,272.98
             387.09,268.88 387.06,264.78 387.06,260.69
             395.13,250.59 401.80,241.54 407.08,233.53
             412.36,225.52 416.43,218.26 419.30,211.75
             419.48,211.29 419.58,210.84 419.58,210.39
             419.58,209.41 419.22,208.55 418.50,207.80
             417.79,207.05 416.88,206.67 415.78,206.67
             415.06,206.67 414.43,206.86 413.88,207.22
             413.32,207.57 412.88,208.11 412.55,208.83
             407.80,219.37 399.30,232.62 387.06,248.58
             387.12,243.89 387.20,239.45 387.30,235.25 Z
           M 379.84,278.55
           C 379.84,281.35 379.84,284.15 379.84,286.95
             379.84,290.08 379.77,293.49 379.64,297.20
             379.52,300.91 379.29,304.63 378.95,308.38
             378.63,312.12 378.14,315.75 377.48,319.27
             376.84,322.79 375.99,325.89 374.95,328.59
             373.91,331.30 372.64,333.47 371.14,335.09
             369.65,336.72 367.89,337.53 365.88,337.53
             365.22,337.53 364.52,337.40 363.77,337.14
             363.02,336.88 362.34,336.36 361.72,335.58
             361.10,334.80 360.58,333.69 360.16,332.25
             359.74,330.82 359.53,328.91 359.53,326.50
             359.53,322.73 360.00,318.45 360.94,313.66
             361.88,308.88 363.23,303.94 364.98,298.86
             366.74,293.79 368.86,288.76 371.33,283.78
             373.80,278.80 376.58,274.19 379.64,269.95
             379.77,272.89 379.84,275.75 379.84,278.55 Z
           M 435.03,223.19
           C 435.26,220.39 435.50,217.57 435.77,214.73
             436.02,211.90 436.23,209.25 436.39,206.78
             436.55,204.30 436.64,202.48 436.64,201.30
             436.64,199.73 436.49,198.21 436.20,196.72
             435.91,195.22 435.45,193.85 434.83,192.61
             434.21,191.37 433.38,190.38 432.34,189.64
             431.30,188.89 430.03,188.52 428.53,188.52
             425.99,188.52 423.43,190.16 420.86,193.45
             418.30,196.73 415.55,201.86 412.61,208.83
             412.42,209.35 412.33,209.84 412.33,210.28
             412.33,211.26 412.65,212.12 413.30,212.88
             413.95,213.62 414.83,214.00 415.94,214.00
             416.66,214.00 417.34,213.81 417.98,213.42
             418.64,213.03 419.13,212.47 419.45,211.75
             421.80,206.09 423.71,202.13 425.20,199.89
             426.70,197.64 427.75,196.42 428.34,196.22
             428.73,196.55 428.98,197.47 429.11,198.97
             429.24,200.46 429.31,202.02 429.31,203.64
             429.31,204.88 429.24,206.41 429.11,208.23
             428.98,210.06 428.82,212.03 428.62,214.14
             428.44,216.26 428.24,218.39 428.05,220.55
             427.85,222.70 427.65,224.70 427.45,226.55
             427.27,228.40 427.10,230.00 426.97,231.33
             426.84,232.66 426.78,233.56 426.78,234.02
             426.78,236.10 427.35,237.71 428.48,238.86
             429.62,239.99 431.13,240.56 433.03,240.56
             434.39,240.56 435.73,240.09 437.03,239.14
             438.33,238.20 439.63,236.37 440.94,233.62
             441.58,232.20 442.47,230.40 443.61,228.22
             444.75,226.03 445.99,223.73 447.33,221.33
             448.66,218.91 450.09,216.48 451.62,214.05
             453.16,211.61 454.65,209.42 456.11,207.47
             457.58,205.51 458.98,203.93 460.31,202.72
             461.66,201.51 462.85,200.91 463.89,200.91
             464.41,200.91 464.99,201.28 465.64,202.03
             466.30,202.78 466.62,204.20 466.62,206.28
             466.62,207.52 466.57,208.82 466.47,210.19
             466.38,211.55 466.24,212.92 466.08,214.30
             465.92,215.66 465.79,216.96 465.69,218.20
             465.59,219.43 465.55,220.54 465.55,221.52
             465.55,223.80 465.72,226.06 466.08,228.31
             466.44,230.55 467.14,232.60 468.19,234.45
             469.23,236.31 470.66,237.81 472.48,238.95
             474.30,240.09 476.68,240.66 479.61,240.66
             482.21,240.66 484.70,240.00 487.08,238.70
             489.45,237.40 491.66,235.78 493.72,233.83
             495.77,231.87 497.64,229.70 499.33,227.33
             501.02,224.95 502.51,222.71 503.78,220.59
             505.05,218.48 506.08,216.61 506.86,214.98
             507.64,213.35 508.16,212.27 508.42,211.75
             508.61,211.29 508.70,210.84 508.70,210.39
             508.70,209.48 508.36,208.61 507.67,207.80
             506.99,206.98 506.10,206.58 505.00,206.58
             504.28,206.58 503.61,206.78 502.98,207.17
             502.37,207.56 501.90,208.11 501.58,208.83
             500.86,210.52 499.77,212.73 498.30,215.47
             496.84,218.20 495.11,220.88 493.12,223.52
             491.14,226.15 488.98,228.43 486.64,230.36
             484.30,232.28 481.88,233.23 479.41,233.23
             478.04,233.23 476.94,232.93 476.09,232.31
             475.25,231.69 474.60,230.84 474.14,229.77
             473.68,228.70 473.37,227.45 473.20,226.02
             473.05,224.58 472.97,223.08 472.97,221.52
             472.97,220.28 473.02,218.96 473.11,217.56
             473.21,216.17 473.31,214.79 473.41,213.42
             473.50,212.05 473.59,210.76 473.69,209.56
             473.79,208.36 473.84,207.33 473.84,206.48
             473.84,202.84 473.03,199.78 471.41,197.31
             469.78,194.84 467.27,193.59 463.89,193.59
             462.19,193.59 460.38,194.10 458.45,195.11
             456.54,196.11 454.63,197.75 452.75,200.03
             450.86,202.38 449.05,204.85 447.33,207.45
             445.61,210.06 443.97,212.68 442.41,215.31
             440.84,217.95 439.38,220.55 438.00,223.12
             436.63,225.70 435.43,228.06 434.39,230.20
             434.59,228.32 434.80,225.98 435.03,223.19 Z
           M 539.80,237.39
           C 542.34,239.57 545.53,240.66 549.38,240.66
             552.16,240.66 554.78,240.02 557.22,238.75
             559.66,237.48 561.93,235.86 564.02,233.88
             566.10,231.89 567.98,229.72 569.67,227.38
             571.37,225.03 572.82,222.80 574.02,220.69
             575.22,218.57 576.20,216.69 576.95,215.03
             577.70,213.37 578.21,212.27 578.47,211.75
             578.66,211.29 578.77,210.80 578.77,210.28
             578.77,209.38 578.44,208.53 577.78,207.75
             577.13,206.97 576.22,206.58 575.05,206.58
             574.34,206.58 573.69,206.78 573.09,207.17
             572.51,207.56 572.05,208.11 571.73,208.83
             571.21,210.00 570.56,211.41 569.78,213.08
             569.00,214.73 568.07,216.48 567.00,218.30
             565.93,220.12 564.75,221.93 563.48,223.72
             562.21,225.51 560.83,227.12 559.33,228.56
             557.83,229.99 556.27,231.14 554.64,232.02
             553.02,232.89 551.35,233.33 549.66,233.33
             547.31,233.33 545.42,232.57 543.98,231.05
             542.55,229.52 541.48,227.68 540.77,225.53
             540.05,223.38 539.59,221.20 539.36,218.98
             539.13,216.77 539.08,214.98 539.22,213.61
             539.22,213.61 540.48,197.39 540.48,197.39
             540.48,196.35 540.16,195.42 539.50,194.61
             538.85,193.80 537.98,193.39 536.88,193.39
             535.89,193.39 535.05,193.72 534.33,194.38
             533.61,195.02 533.19,195.84 533.06,196.81
             533.06,196.81 531.59,213.61 531.59,213.61
             531.27,216.86 530.55,219.70 529.44,222.11
             528.33,224.52 527.05,226.50 525.58,228.06
             524.12,229.62 522.62,230.78 521.09,231.53
             519.56,232.28 518.21,232.66 517.05,232.66
             514.24,232.66 512.08,231.66 510.55,229.67
             509.02,227.68 508.25,224.77 508.25,220.94
             508.25,217.55 508.54,214.54 509.12,211.91
             509.72,209.26 510.41,206.96 511.19,205.02
             511.97,203.06 512.71,201.48 513.42,200.28
             514.14,199.07 514.66,198.18 515.00,197.59
             515.19,197.20 515.36,196.81 515.53,196.42
             515.70,196.03 515.78,195.64 515.78,195.25
             515.78,194.27 515.44,193.41 514.75,192.66
             514.06,191.91 513.20,191.53 512.16,191.53
             511.63,191.53 511.13,191.63 510.64,191.83
             510.16,192.03 509.75,192.32 509.42,192.70
             509.42,192.70 508.96,193.32 508.05,194.56
             507.14,195.80 506.16,197.61 505.12,199.98
             504.08,202.36 503.12,205.31 502.25,208.83
             501.38,212.34 500.94,216.38 500.94,220.94
             500.94,223.87 501.30,226.50 502.05,228.84
             502.80,231.19 503.88,233.20 505.31,234.86
             506.75,236.52 508.44,237.80 510.39,238.72
             512.35,239.62 514.57,240.08 517.05,240.08
             520.11,240.08 523.15,239.00 526.17,236.86
             529.20,234.70 531.86,231.77 534.14,228.06
             535.37,232.09 537.25,235.20 539.80,237.39 Z
           M 520.38,178.75
           C 520.38,179.59 520.68,180.34 521.30,181.00
             521.92,181.65 522.69,181.97 523.61,181.97
             524.39,181.97 525.13,181.68 525.84,181.09
             525.84,181.09 541.47,166.25 541.47,166.25
             542.12,165.66 542.45,164.91 542.45,164.00
             542.45,163.09 542.12,162.30 541.47,161.66
             540.82,161.00 540.08,160.67 539.23,160.67
             538.38,160.67 537.63,160.97 536.98,161.56
             536.98,161.56 521.36,176.41 521.36,176.41
             520.70,177.05 520.38,177.84 520.38,178.75 Z
           M 585.14,208.30
           C 586.09,210.02 586.97,211.69 587.78,213.31
             588.59,214.94 589.26,216.57 589.78,218.20
             590.30,219.83 590.56,221.45 590.56,223.08
             590.56,223.86 590.41,224.79 590.12,225.86
             589.83,226.93 589.36,227.95 588.70,228.89
             588.05,229.84 587.19,230.64 586.11,231.30
             585.04,231.95 583.72,232.27 582.16,232.27
             581.38,232.27 580.61,232.14 579.86,231.88
             579.12,231.62 578.47,231.31 577.91,230.95
             577.35,230.59 576.88,230.26 576.48,229.97
             576.10,229.68 575.88,229.46 575.81,229.33
             575.09,228.61 574.21,228.25 573.17,228.25
             572.20,228.25 571.34,228.62 570.59,229.38
             569.84,230.12 569.47,230.99 569.47,231.97
             569.47,232.62 569.66,233.23 570.05,233.83
             572.39,237.34 575.43,239.86 579.17,241.39
             582.92,242.92 586.98,243.69 591.34,243.69
             594.99,243.69 598.34,243.15 601.39,242.08
             604.45,241.00 607.27,239.57 609.84,237.78
             612.41,235.99 614.74,233.95 616.83,231.67
             618.91,229.39 620.75,227.06 622.34,224.69
             623.94,222.31 625.30,220.01 626.44,217.77
             627.58,215.52 628.52,213.51 629.23,211.75
             629.43,211.29 629.53,210.80 629.53,210.28
             629.53,209.38 629.22,208.53 628.59,207.75
             627.98,206.97 627.12,206.58 626.02,206.58
             624.84,206.58 623.93,207.33 623.28,208.83
             621.84,212.08 620.14,215.35 618.19,218.64
             616.24,221.92 614.01,224.92 611.50,227.62
             609.00,230.32 606.19,232.52 603.06,234.22
             599.94,235.91 596.52,236.75 592.81,236.75
             592.48,236.75 592.15,236.75 591.83,236.75
             591.50,236.75 591.18,236.72 590.86,236.66
             593.39,234.96 595.21,232.88 596.31,230.41
             597.43,227.93 597.98,225.32 597.98,222.59
             597.98,220.51 597.61,218.43 596.86,216.34
             596.11,214.26 595.14,212.03 593.97,209.66
             592.80,207.28 591.47,204.66 589.97,201.80
             588.48,198.93 586.98,195.64 585.48,191.92
             585.80,190.36 586.07,189.06 586.27,188.02
             586.46,186.98 586.56,185.93 586.56,184.89
             586.56,183.01 586.12,181.41 585.23,180.11
             584.36,178.81 583.17,178.16 581.67,178.16
             580.05,178.16 578.77,178.82 577.86,180.16
             576.95,181.49 576.50,183.23 576.50,185.39
             576.50,186.50 576.59,187.57 576.78,188.61
             576.98,189.65 577.30,190.92 577.77,192.42
             577.24,195.09 576.58,197.65 575.77,200.09
             574.95,202.53 573.70,205.38 572.00,208.62
             571.74,209.15 571.58,209.52 571.52,209.75
             571.45,209.98 571.42,210.26 571.42,210.58
             571.42,211.50 571.74,212.30 572.39,212.98
             573.05,213.66 573.93,214.00 575.03,214.00
             576.01,214.00 576.80,213.70 577.42,213.08
             578.05,212.45 578.65,211.59 579.23,210.48
             579.95,209.05 580.59,207.68 581.14,206.38
             581.69,205.07 582.16,203.90 582.55,202.86
             583.33,204.76 584.19,206.57 585.14,208.30 Z" class="UIlapHiu_0"></path>
<style></style></svg>
